# Blender 4.0.2
# www.blender.org
mtllib RoomCorridor.mtl
o Corridor
v -8.000000 1.499998 5.500000
v -6.500000 1.500001 4.500000
v -6.500000 1.500000 5.500000
v -8.000000 1.999999 3.000000
v -6.000000 2.000001 3.000000
v -5.750000 2.100000 10.000000
v -5.750000 6.500000 10.000000
v -10.250000 6.500000 10.000000
v -10.500000 6.286250 10.000000
v -8.000000 1.999999 7.000000
v -5.500000 6.286250 10.000000
v -6.000000 2.000000 7.000000
v -5.750000 2.225000 10.000000
v -8.749999 0.999998 5.200000
v -9.250001 1.000001 4.800000
v -10.250000 2.100001 10.000000
v -8.749999 0.999999 4.800000
v -10.250000 2.225001 10.000000
v -10.375000 2.162501 10.000000
v -10.500000 2.225001 10.000000
v -7.250000 0.999999 5.200000
v -6.750000 1.000000 5.200000
v -7.250000 0.999999 4.800000
v -8.000000 2.099999 10.000000
v -6.750000 1.000001 4.800000
v -8.000000 2.224998 10.000000
v -5.500000 2.225001 0.000000
v -10.500000 2.225001 0.000000
v -8.000000 2.224999 0.000000
v -5.500000 2.225001 10.000000
v -10.000000 2.000001 7.000000
v -10.375000 2.162501 0.000000
v -10.250000 6.500000 0.000000
v -10.250000 2.225001 0.000000
v -10.000000 2.000001 3.000000
v -8.000000 1.499999 4.500000
v -5.625000 2.162501 10.000000
v -5.625000 2.162501 0.000000
v -5.750000 6.500000 0.000000
v -5.750000 2.225001 0.000000
v -9.500000 1.500001 4.500000
v -9.500000 1.500001 5.500000
v -5.500000 6.286250 0.000000
v -10.500000 6.286250 0.000000
v -9.250001 1.000001 5.200000
v -8.000000 2.099999 -0.000000
v -10.250000 2.100001 0.000000
v -5.750000 2.100001 0.000000
v -6.750002 0.300001 5.200000
v -7.250002 0.299999 5.200000
v -6.750002 0.300001 4.800000
v -7.250002 0.299999 4.800000
v -8.750001 0.299999 4.800000
v -9.250003 0.300001 4.800000
v -9.250003 0.300001 5.200000
v -8.750001 0.299999 5.200000
v -6.400000 0.300000 5.700000
v -10.000000 0.000000 7.000000
v -6.400000 0.300001 4.300000
v -10.000000 0.000001 3.000000
v -9.600000 0.300001 4.300000
v -9.600000 0.300000 5.700000
v -7.250000 0.299999 5.700000
v -7.250000 0.300000 4.300000
v -8.750000 0.300000 4.300000
v -8.750000 0.299999 5.700000
v -6.000000 0.000000 7.000000
v -6.000000 0.000001 3.000000
v -8.750000 -0.000000 3.000000
v -8.750000 -0.000001 7.000000
v -7.250000 -0.000001 7.000000
v -7.250000 -0.000000 3.000000
vn 0.3714 -0.9285 -0.0000
vn 0.6499 0.7601 -0.0000
vn -0.0000 -0.9487 -0.3162
vn -0.0000 -0.0000 1.0000
vn -0.4472 -0.8944 -0.0000
vn 1.0000 -0.0000 -0.0000
vn -0.0000 -0.9994 0.0333
vn -1.0000 -0.0000 -0.0000
vn -0.0000 -0.0000 -1.0000
vn -0.0000 1.0000 -0.0000
vn 0.7071 -0.7071 -0.0000
vn 0.4472 -0.8944 -0.0000
vn 0.8944 -0.4472 -0.0000
vn -0.0000 -0.5145 -0.8575
vn -0.5547 -0.8321 -0.0000
vn -0.7071 -0.7071 -0.0000
vn -0.0000 -0.9994 -0.0333
vn -0.3714 -0.9285 -0.0000
vn -0.0000 -0.5145 0.8575
vn -0.0000 -0.9487 0.3162
vn 0.5547 -0.8321 -0.0000
vn -0.8944 -0.4472 -0.0000
vn -0.0000 0.9744 0.2249
vn 0.6000 0.8000 -0.0000
vn -0.0000 -1.0000 -0.0000
vn -0.6000 0.8000 -0.0000
vn -0.0000 0.9744 -0.2249
vn -0.6499 0.7601 -0.0000
vt 0.446429 0.903125
vt 0.607143 0.903125
vt 0.599509 0.906250
vt 0.446429 0.875000
vt 0.454464 0.906250
vt 0.599509 0.903125
vt 0.454464 0.903125
vt 0.446429 0.846875
vt 0.450447 0.845313
vt 0.454464 0.843750
vt 0.599509 0.846875
vt 0.454464 0.846875
vt 0.454464 0.875000
vt 0.599509 0.843750
vt 0.450446 0.904688
vt 0.607143 0.846875
vt 0.446429 0.889063
vt 0.446429 0.860938
s 0
usemtl Material.003
f 6/1/1 12/1/1 5/1/1 48/1/1
f 39/2/2 7/2/2 11/3/2 43/3/2
f 5/1/3 2/1/3 36/4/3 4/4/3
f 30/5/4 11/3/4 7/6/4 13/7/4
f 47/8/5 16/8/5 19/9/5 32/9/5
f 32/9/5 19/9/5 20/10/5 28/10/5
f 33/11/6 8/11/6 18/12/6 34/12/6
f 24/4/7 10/4/7 12/1/7 6/1/7
f 40/7/8 13/7/8 7/6/8 39/6/8
f 27/5/9 40/7/9 39/2/9 43/3/9
f 29/13/10 26/13/10 13/7/10 40/7/10
f 12/1/11 3/1/11 2/1/11 5/1/11
f 34/12/9 28/10/9 44/14/9 33/11/9
f 24/4/4 26/13/4 18/12/4 16/8/4
f 43/3/6 11/3/6 30/5/6 27/5/6
f 27/5/12 30/5/12 37/15/12 38/15/12
f 3/1/13 22/1/13 25/1/13 2/1/13
f 15/8/8 54/8/8 55/8/8 45/8/8
f 2/1/14 25/1/14 23/4/14 36/4/14
f 25/1/9 51/1/9 52/4/9 23/4/9
f 36/4/15 23/4/15 21/4/15 1/4/15
f 8/16/4 9/14/4 20/10/4 18/12/4
f 28/10/8 20/10/8 9/14/8 44/14/8
f 35/8/16 41/8/16 42/8/16 31/8/16
f 38/15/12 37/15/12 6/1/12 48/1/12
f 34/12/10 18/12/10 26/13/10 29/13/10
f 34/12/9 47/8/9 32/9/9 28/10/9
f 36/4/14 17/4/14 15/8/14 41/8/14
f 46/4/17 4/4/17 35/8/17 47/8/17
f 47/8/18 35/8/18 31/8/18 16/8/18
f 1/4/19 21/4/19 22/1/19 3/1/19
f 16/8/7 31/8/7 10/4/7 24/4/7
f 48/1/17 5/1/17 4/4/17 46/4/17
f 48/1/9 46/4/9 29/13/9 40/7/9
f 46/4/9 47/8/9 34/12/9 29/13/9
f 10/4/20 1/4/20 3/1/20 12/1/20
f 31/8/20 42/8/20 1/4/20 10/4/20
f 42/8/19 45/8/19 14/4/19 1/4/19
f 4/4/3 36/4/3 41/8/3 35/8/3
f 40/7/9 27/5/9 38/15/9 48/1/9
f 18/12/4 20/10/4 19/9/4 16/8/4
f 1/4/21 14/4/21 17/4/21 36/4/21
f 41/8/22 15/8/22 45/8/22 42/8/22
f 13/7/4 6/1/4 37/15/4 30/5/4
f 6/1/4 13/7/4 26/13/4 24/4/4
f 49/1/10 57/1/10 59/1/10 51/1/10
f 14/4/6 56/4/6 53/4/6 17/4/6
f 23/4/8 52/4/8 50/4/8 21/4/8
f 45/8/4 55/8/4 56/4/4 14/4/4
f 21/4/4 50/4/4 49/1/4 22/1/4
f 22/1/6 49/1/6 51/1/6 25/1/6
f 17/4/9 53/4/9 54/8/9 15/8/9
f 63/17/23 71/17/23 67/1/23 57/1/23
f 63/17/10 50/4/10 56/4/10 66/18/10
f 54/8/10 61/8/10 62/8/10 55/8/10
f 50/4/10 52/4/10 53/4/10 56/4/10
f 57/1/24 67/1/24 68/1/24 59/1/24
f 65/18/10 53/4/10 52/4/10 64/17/10
f 66/18/23 70/18/23 71/17/23 63/17/23
f 52/4/10 51/1/10 59/1/10 64/17/10
f 54/8/10 53/4/10 65/18/10 61/8/10
f 55/8/10 62/8/10 66/18/10 56/4/10
f 50/4/10 63/17/10 57/1/10 49/1/10
f 69/18/25 70/18/25 58/8/25 60/8/25
f 68/1/25 67/1/25 71/17/25 72/17/25
f 72/17/25 71/17/25 70/18/25 69/18/25
f 61/8/26 60/8/26 58/8/26 62/8/26
f 64/17/27 72/17/27 69/18/27 65/18/27
f 65/18/27 69/18/27 60/8/27 61/8/27
f 59/1/27 68/1/27 72/17/27 64/17/27
f 62/8/23 58/8/23 70/18/23 66/18/23
f 9/14/28 8/16/28 33/16/28 44/14/28
