# Blender 4.0.2
# www.blender.org
mtllib ShapeTri.mtl
o Cube
v 1.000000 0.551544 -1.000000
v 1.000000 -1.000000 -1.000000
v 1.000000 1.000000 1.000000
v 0.906049 -1.000000 0.907696
v -1.000000 1.000000 -1.000000
v -1.000000 -1.000000 -0.757703
v -0.435516 1.000000 1.000000
v -0.536630 -1.000000 0.719785
v 0.252711 -1.000000 -0.757703
v 0.252711 1.000000 1.000000
v 0.252711 -1.000000 0.719785
v 0.252711 0.551544 -1.000000
v -0.536630 -1.000000 -0.343792
v 1.000000 0.551544 -0.343792
v -0.435516 1.000000 -0.343792
v 0.911233 -1.000000 -0.311247
v 0.252711 -1.000000 -0.343792
v 0.252711 0.551544 -0.343792
v 0.643888 0.089986 -0.652543
v -0.029498 0.089986 0.587200
v 0.643888 0.089986 0.587200
v -0.595856 0.089986 -0.652543
v 0.180664 0.089986 -0.652543
v 0.178790 0.089986 0.587200
v 0.643888 0.089986 -0.245778
v -0.031372 0.089986 -0.245778
v 1.606112 -1.247476 0.587200
v 0.902338 -1.239863 1.000000
v 0.902338 -1.239863 -0.343792
v 1.606112 -1.247476 -0.245778
vn 0.5258 0.8069 -0.2693
vn -0.0000 -0.4131 0.9107
vn -0.5761 -0.1698 0.7995
vn -0.0000 -1.0000 -0.0000
vn 0.7917 -0.6109 -0.0000
vn -0.0000 -0.6014 -0.7989
vn -0.0000 0.9486 -0.3166
vn -0.0000 1.0000 -0.0000
vn -0.9140 -0.4057 0.0021
vn 0.5459 0.8378 -0.0000
vn -0.9067 0.4218 -0.0000
vn 0.9542 0.2726 0.1230
vn -0.2702 0.2112 0.9394
vn -0.0000 0.0960 -0.9954
vn -0.3023 0.1984 -0.9323
vn -0.9999 0.0155 -0.0000
vn -0.6562 0.1724 0.7346
vn -0.0000 0.1207 0.9927
vn -0.0108 -0.9999 -0.0000
vn 0.8117 0.5840 -0.0000
vn 0.1382 0.1281 -0.9821
vn 0.4897 0.3523 0.7976
vn -0.7552 -0.0873 0.6496
vn 0.8994 -0.4147 0.1384
vn -0.1464 -0.4089 -0.9007
vn -0.9132 -0.4075 -0.0000
vn 0.3237 0.9043 -0.2785
vn -0.9073 0.4204 0.0020
vn 0.9712 0.2382 -0.0000
vn -0.9993 0.0376 -0.0042
vn -0.5735 0.1943 0.7958
vn 0.1252 0.0900 -0.9880
vn 0.4839 0.3078 0.8192
vt 0.875000 0.582026
vt 0.718411 0.750000
vt 0.718411 0.582026
vt 0.625000 0.843411
vt 0.725393 1.000000
vt 0.725393 0.843411
vt 0.625000 0.167974
vt 0.725393 0.250000
vt 0.725393 0.167974
vt 0.375000 0.582026
vt 0.281589 0.750000
vt 0.281589 0.582026
vt 0.625000 0.582026
vt 0.725393 0.750000
vt 0.725393 0.582026
vt 0.625000 0.406589
vt 0.725393 0.500000
vt 0.725393 0.406589
vt 0.125000 0.750000
vt 0.125000 0.582026
vt 0.625000 0.750000
vt 0.718411 0.500000
vt 0.625000 0.500000
vt 0.281589 0.500000
vt 0.125000 0.500000
vt 0.725393 0.000000
vt 0.375000 0.167974
vt 0.375000 0.000000
vt 0.375000 0.500000
vt 0.375000 0.843411
vt 0.375000 0.750000
vt 0.375000 0.406589
vt 0.375000 0.250000
vt 0.375000 1.000000
vt 0.875000 0.750000
vt 0.625000 1.000000
vt 0.625000 0.250000
vt 0.625000 0.000000
vt 0.875000 0.500000
s 0
usemtl Material
f 15/1/1 10/2/1 18/3/1
f 10/4/2 20/5/2 24/6/2
f 15/7/3 22/8/3 26/9/3
f 16/10/4 11/11/4 17/12/4
f 14/13/5 21/14/5 25/15/5
f 12/16/6 19/17/6 23/18/6
f 22/8/6 12/16/6 23/18/6
f 17/12/4 8/19/4 13/20/4
f 21/14/2 10/4/2 24/6/2
f 18/3/7 3/21/7 14/13/7
f 12/22/8 14/13/8 1/23/8
f 9/24/4 13/20/4 6/25/4
f 19/17/5 14/13/5 25/15/5
f 9/24/4 16/10/4 17/12/4
f 20/26/9 15/7/9 26/9/9
f 12/22/10 15/1/10 18/3/10
f 20/26/11 13/27/11 8/28/11
f 19/17/12 16/10/12 2/29/12
f 21/14/13 11/30/13 4/31/13
f 22/8/14 9/32/14 6/33/14
f 9/32/15 19/17/15 2/29/15
f 4/31/16 29/10/16 28/31/16
f 13/27/17 22/8/17 6/33/17
f 11/30/18 20/5/18 8/34/18
f 29/10/19 27/14/19 28/31/19
f 21/14/20 30/15/20 25/15/20
f 16/10/21 30/15/21 29/10/21
f 4/31/22 27/14/22 21/14/22
f 15/1/8 7/35/8 10/2/8
f 10/4/2 7/36/2 20/5/2
f 15/7/23 5/37/23 22/8/23
f 16/10/4 4/31/4 11/11/4
f 14/13/24 3/21/24 21/14/24
f 12/16/6 1/23/6 19/17/6
f 22/8/25 5/37/25 12/16/25
f 17/12/4 11/11/4 8/19/4
f 21/14/2 3/21/2 10/4/2
f 18/3/7 10/2/7 3/21/7
f 12/22/8 18/3/8 14/13/8
f 9/24/4 17/12/4 13/20/4
f 19/17/5 1/23/5 14/13/5
f 9/24/4 2/29/4 16/10/4
f 20/26/26 7/38/26 15/7/26
f 12/22/27 5/39/27 15/1/27
f 20/26/28 26/9/28 13/27/28
f 19/17/29 25/15/29 16/10/29
f 21/14/18 24/6/18 11/30/18
f 22/8/14 23/18/14 9/32/14
f 9/32/14 23/18/14 19/17/14
f 4/31/30 16/10/30 29/10/30
f 13/27/31 26/9/31 22/8/31
f 11/30/18 24/6/18 20/5/18
f 29/10/19 30/15/19 27/14/19
f 21/14/20 27/14/20 30/15/20
f 16/10/32 25/15/32 30/15/32
f 4/31/33 28/31/33 27/14/33
