# Blender 4.0.2
# www.blender.org
mtllib SimpleSubmesh.mtl
o Cube
v 0.500000 0.500000 -0.500000
v 0.500000 -0.500000 -0.500000
v 0.500000 0.500000 0.500000
v 0.500000 -0.500000 0.500000
v -0.500000 0.500000 -0.500000
v -0.500000 -0.500000 -0.500000
v -0.500000 0.500000 0.500000
v -0.500000 -0.500000 0.500000
vn -0.0000 -0.0000 -1.0000
vt 0.625000 0.250000
vt 0.375000 0.500000
vt 0.375000 0.250000
vt 0.625000 0.500000
s 0
usemtl Material
f 5/1/1 2/2/1 6/3/1
f 5/1/1 1/4/1 2/2/1
l 6 8
l 8 7
l 3 4
l 3 7
l 1 3
l 8 4
l 7 5
l 4 2
o Cube.001
v 0.500000 0.500000 -0.500000
v 0.500000 -0.500000 -0.500000
v 0.500000 0.500000 0.500000
v 0.500000 -0.500000 0.500000
v -0.500000 0.500000 -0.500000
v -0.500000 -0.500000 -0.500000
v -0.500000 0.500000 0.500000
v -0.500000 -0.500000 0.500000
vn -1.0000 -0.0000 -0.0000
vt 0.625000 0.000000
vt 0.375000 0.250000
vt 0.375000 0.000000
vt 0.625000 0.250000
s 0
usemtl Material.001
f 15/5/2 14/6/2 16/7/2
f 15/5/2 13/8/2 14/6/2
l 10 14
l 9 10
l 11 12
l 11 15
l 9 11
l 16 12
l 13 9
l 12 10
o Cube.002
v 0.500000 0.500000 -0.500000
v 0.500000 -0.500000 -0.500000
v 0.500000 0.500000 0.500000
v 0.500000 -0.500000 0.500000
v -0.500000 0.500000 -0.500000
v -0.500000 -0.500000 -0.500000
v -0.500000 0.500000 0.500000
v -0.500000 -0.500000 0.500000
vn -0.0000 -0.0000 1.0000
vt 0.625000 0.750000
vt 0.375000 1.000000
vt 0.375000 0.750000
vt 0.625000 1.000000
s 0
usemtl Material.002
f 19/9/3 24/10/3 20/11/3
f 19/9/3 23/12/3 24/10/3
l 22 24
l 18 22
l 17 18
l 21 22
l 17 19
l 23 21
l 21 17
l 20 18
o Cube.003
v 0.500000 0.500000 -0.500000
v 0.500000 -0.500000 -0.500000
v 0.500000 0.500000 0.500000
v 0.500000 -0.500000 0.500000
v -0.500000 0.500000 -0.500000
v -0.500000 -0.500000 -0.500000
v -0.500000 0.500000 0.500000
v -0.500000 -0.500000 0.500000
vn 1.0000 -0.0000 -0.0000
vt 0.625000 0.500000
vt 0.375000 0.750000
vt 0.375000 0.500000
vt 0.625000 0.750000
s 0
usemtl Material.003
f 25/13/4 28/14/4 26/15/4
f 25/13/4 27/16/4 28/14/4
l 30 32
l 26 30
l 32 31
l 29 30
l 27 31
l 32 28
l 31 29
l 29 25
o Cube.004
v 0.500000 0.500000 -0.500000
v 0.500000 -0.500000 -0.500000
v 0.500000 0.500000 0.500000
v 0.500000 -0.500000 0.500000
v -0.500000 0.500000 -0.500000
v -0.500000 -0.500000 -0.500000
v -0.500000 0.500000 0.500000
v -0.500000 -0.500000 0.500000
vn -0.0000 1.0000 -0.0000
vt 0.875000 0.500000
vt 0.625000 0.750000
vt 0.625000 0.500000
vt 0.875000 0.750000
s 0
usemtl Material.004
f 37/17/5 35/18/5 33/19/5
f 37/17/5 39/20/5 35/18/5
l 38 40
l 34 38
l 33 34
l 40 39
l 35 36
l 37 38
l 40 36
l 36 34
o Cube.005
v 0.500000 0.500000 -0.500000
v 0.500000 -0.500000 -0.500000
v 0.500000 0.500000 0.500000
v 0.500000 -0.500000 0.500000
v -0.500000 0.500000 -0.500000
v -0.500000 -0.500000 -0.500000
v -0.500000 0.500000 0.500000
v -0.500000 -0.500000 0.500000
vn -0.0000 -1.0000 -0.0000
vt 0.375000 0.500000
vt 0.125000 0.750000
vt 0.125000 0.500000
vt 0.375000 0.750000
s 0
usemtl Material.005
f 42/21/6 48/22/6 46/23/6
f 42/21/6 44/24/6 48/22/6
l 41 42
l 48 47
l 43 44
l 45 46
l 43 47
l 41 43
l 47 45
l 45 41
