# Blender 4.0.2
# www.blender.org
mtllib ControlDesk.mtl
o ControlDesk
v -1.000000 0.000000 -0.000000
v -1.000000 1.200000 -0.000000
v 1.000000 0.000000 -0.000000
v 1.000000 1.200000 -0.000000
v -1.000000 0.000000 1.400000
v -1.000000 1.200000 1.400000
v 1.000000 0.000000 1.400000
v 1.000000 1.200000 1.400000
v 0.900000 0.000000 -0.000000
v -0.900000 0.000000 -0.000000
v -0.800000 1.000000 -0.000000
v 0.800001 1.000000 -0.000000
v 0.900000 0.000000 1.300000
v -0.900000 0.000000 1.300000
v 0.800001 1.100000 1.200000
v -0.800000 1.100000 1.200000
v 1.000000 0.000000 0.900000
v 1.000000 1.200000 0.900000
v -1.000000 0.000000 0.900000
v -1.000000 1.200000 0.900000
v 0.900000 0.000000 0.900000
v -0.900000 0.000000 0.900000
v -0.800000 1.100000 0.900000
v 0.800001 1.100000 0.900000
v 1.000000 0.000000 0.100000
v -1.000000 1.200000 0.100000
v 0.900000 0.000000 0.100000
v 1.000000 1.200000 0.100000
v 0.800001 1.000000 0.100000
v -1.000000 0.000000 0.100000
v -0.900000 0.000000 0.100000
v -0.800000 1.000000 0.100000
v 1.000000 1.200000 0.200000
v -1.000000 1.000000 0.200000
v -0.900000 1.000000 0.200000
v -0.800000 1.100000 0.200000
v 1.000000 1.000000 0.200000
v -1.000000 1.200000 0.200000
v 0.900000 1.000000 0.200000
v 0.800001 1.100000 0.200000
v 1.000000 1.200000 0.600000
v -1.000000 1.000000 0.600000
v -0.900000 1.000000 0.600000
v -0.800000 1.100000 0.600000
v 1.000000 1.000000 0.600000
v -1.000000 1.200000 0.600000
v 0.900000 1.000000 0.600000
v 0.800001 1.100000 0.600000
vn -0.0000 -1.0000 -0.0000
vn 1.0000 -0.0000 -0.0000
vn -0.0000 -0.0000 1.0000
vn -1.0000 -0.0000 -0.0000
vn -0.0000 -0.0000 -1.0000
vn -0.0000 1.0000 -0.0000
vn 0.9959 -0.0905 -0.0000
vn -0.0000 -0.0905 -0.9959
vn -0.9959 -0.0905 -0.0000
vn -0.5774 -0.5773 0.5773
vn 0.9950 -0.0995 -0.0000
vn -0.0000 -0.2873 -0.9578
vn -0.9950 -0.0995 -0.0000
vn -0.0000 -0.0995 0.9950
vn 0.7071 -0.7071 -0.0000
vn -0.0000 -0.7071 0.7071
vn -0.7071 -0.7071 -0.0000
vn -0.9534 -0.0867 -0.2889
vn -0.7053 -0.0705 0.7053
vn 0.5773 -0.5774 0.5774
vn 0.7053 -0.0705 0.7053
vn 0.9534 -0.0867 -0.2889
vt 0.375000 0.500000
vt 0.375000 0.750000
vt 0.375000 0.375000
vt 0.625000 0.375000
vt 0.625000 0.500000
vt 0.625000 0.750000
vt 0.375000 0.937500
vt 0.625000 0.937500
vt 0.625000 1.000000
vt 0.375000 1.000000
vt 0.875000 0.750000
vt 0.875000 0.500000
vt 0.812500 0.500000
vt 0.812500 0.750000
vt 0.375000 0.875000
vt 0.500000 0.875000
vt 0.625000 0.250000
vt 0.375000 0.250000
vt 0.375000 0.937500
vt 0.375000 0.343750
vt 0.562500 0.937500
vt 0.375000 0.359375
vt 0.375000 0.359375
vt 0.750000 0.500000
vt 0.750000 0.750000
vt 0.625000 0.875000
vt 0.625000 0.359375
vt 0.625000 0.312500
vt 0.375000 0.312500
vt 0.375000 0.312500
vt 0.375000 0.906250
vt 0.375000 0.906250
vt 0.781250 0.500000
vt 0.781250 0.750000
vt 0.625000 0.906250
vt 0.375000 0.890625
vt 0.625000 0.890625
vt 0.765625 0.500000
vt 0.765625 0.750000
vt 0.531250 0.906250
vt 0.515625 0.890625
vt 0.625000 0.343750
vt 0.375000 0.343750
s 0
f 7/1/1 5/2/1 14/2/1 13/1/1
f 17/3/2 18/4/2 8/5/2 7/1/2
f 7/1/3 8/5/3 6/6/3 5/2/3
f 30/7/4 26/8/4 2/9/4 1/10/4
f 2/11/5 4/12/5 12/12/5 11/11/5
f 28/13/6 4/12/6 2/11/6 26/14/6
f 14/2/7 22/15/7 23/16/7 16/2/7
f 13/1/8 14/2/8 16/2/8 15/1/8
f 4/17/5 3/18/5 9/18/5 12/17/5
f 1/10/5 2/9/5 11/9/5 10/10/5
f 30/7/1 1/10/1 10/10/1 31/19/1
f 17/3/1 7/1/1 13/1/1 21/3/1
f 21/3/9 13/1/9 15/17/9 24/17/9
f 40/17/10 29/12/10 39/20/10
f 44/11/1 48/12/1 24/12/1 23/11/1
f 23/11/1 24/12/1 15/12/1 16/11/1
f 31/19/11 10/10/11 11/9/11 32/21/11
f 45/22/12 17/3/12 21/3/12 47/23/12
f 5/2/1 19/15/1 22/15/1 14/2/1
f 8/5/6 18/24/6 20/25/6 6/6/6
f 5/2/4 6/6/4 20/26/4 19/15/4
f 45/22/2 41/27/2 18/4/2 17/3/2
f 3/18/2 4/17/2 28/28/2 25/29/2
f 3/18/1 25/29/1 27/30/1 9/18/1
f 11/11/1 12/12/1 29/12/1 32/11/1
f 9/18/13 27/30/13 29/17/13 12/17/13
f 34/31/14 30/7/14 31/19/14 35/32/14
f 33/33/6 28/13/6 26/14/6 38/34/6
f 34/31/4 38/35/4 26/8/4 30/7/4
f 42/36/4 46/37/4 38/35/4 34/31/4
f 41/38/6 33/33/6 38/34/6 46/39/6
f 42/36/1 34/31/1 35/32/1 43/36/1
f 43/36/15 35/32/15 36/40/15 44/41/15
f 25/29/2 28/28/2 33/42/2 37/43/2
f 25/29/14 37/43/14 39/20/14 27/30/14
f 32/11/16 29/12/16 40/12/16 36/11/16
f 19/15/12 42/36/12 43/36/12 22/15/12
f 18/24/6 41/38/6 46/39/6 20/25/6
f 19/15/4 20/26/4 46/37/4 42/36/4
f 37/43/2 33/42/2 41/27/2 45/22/2
f 37/43/1 45/22/1 47/23/1 39/20/1
f 36/11/1 40/12/1 48/12/1 44/11/1
f 39/20/17 47/23/17 48/17/17 40/17/17
f 48/17/17 47/23/17 24/12/17
f 24/12/18 47/23/18 21/3/18
f 39/20/19 29/12/19 27/30/19
f 36/40/20 35/32/20 32/11/20
f 32/11/21 35/32/21 31/19/21
f 44/41/15 23/11/15 43/36/15
f 43/36/22 23/11/22 22/15/22
