# Blender 4.0.2
# www.blender.org
mtllib ShapeQuad.mtl
o Cube
v 1.000000 0.551544 -1.000000
v 1.000000 -1.000000 -1.000000
v 1.000000 1.000000 1.000000
v 0.906049 -1.000000 0.907696
v -1.000000 1.000000 -1.000000
v -1.000000 -1.000000 -0.757703
v -0.435516 1.000000 1.000000
v -0.536630 -1.000000 0.719785
v 0.252711 -1.000000 -0.757703
v 0.252711 1.000000 1.000000
v 0.252711 -1.000000 0.719785
v 0.252711 0.551544 -1.000000
v -0.536630 -1.000000 -0.343792
v 1.000000 0.551544 -0.343792
v -0.435516 1.000000 -0.343792
v 0.911233 -1.000000 -0.311247
v 0.252711 -1.000000 -0.343792
v 0.252711 0.551544 -0.343792
v 0.643888 0.089986 -0.652543
v -0.029498 0.089986 0.587200
v 0.643888 0.089986 0.587200
v -0.595856 0.089986 -0.652543
v 0.180664 0.089986 -0.652543
v 0.178790 0.089986 0.587200
v 0.643888 0.089986 -0.245778
v -0.031372 0.089986 -0.245778
v 1.606112 -1.247476 0.587200
v 0.902338 -1.239863 1.000000
v 0.902338 -1.239863 -0.343792
v 1.606112 -1.247476 -0.245778
vn 0.3060 0.9391 -0.1567
vn -0.0000 -0.4131 0.9107
vn -0.6801 -0.1252 0.7223
vn -0.0000 -1.0000 -0.0000
vn 0.8738 -0.4763 0.0981
vn -0.0000 -0.6014 -0.7989
vn -0.1037 -0.4694 -0.8769
vn -0.0000 0.9486 -0.3166
vn -0.0000 1.0000 -0.0000
vn 0.7917 -0.6109 -0.0000
vn -0.9135 -0.4068 0.0008
vn 0.4128 0.8933 -0.1776
vn -0.9070 0.4212 0.0009
vn 0.9623 0.2605 0.0780
vn -0.1631 0.1766 0.9707
vn -0.0000 0.0960 -0.9954
vn -0.1936 0.1628 -0.9675
vn -0.9997 0.0260 -0.0020
vn -0.6133 0.1842 0.7681
vn -0.0000 0.1207 0.9927
vn -0.0108 -0.9999 -0.0000
vn 0.8117 0.5840 -0.0000
vn 0.1277 0.0976 -0.9870
vn 0.4887 0.3439 0.8019
vt 0.718411 0.582026
vt 0.875000 0.582026
vt 0.875000 0.750000
vt 0.718411 0.750000
vt 0.725393 0.843411
vt 0.625000 0.843411
vt 0.625000 1.000000
vt 0.725393 1.000000
vt 0.725393 0.167974
vt 0.625000 0.167974
vt 0.625000 0.250000
vt 0.725393 0.250000
vt 0.281589 0.582026
vt 0.375000 0.582026
vt 0.375000 0.750000
vt 0.281589 0.750000
vt 0.725393 0.582026
vt 0.625000 0.582026
vt 0.625000 0.750000
vt 0.725393 0.750000
vt 0.725393 0.406589
vt 0.625000 0.406589
vt 0.625000 0.500000
vt 0.725393 0.500000
vt 0.125000 0.582026
vt 0.125000 0.750000
vt 0.718411 0.500000
vt 0.125000 0.500000
vt 0.281589 0.500000
vt 0.375000 0.500000
vt 0.725393 0.000000
vt 0.625000 0.000000
vt 0.875000 0.500000
vt 0.375000 0.000000
vt 0.375000 0.167974
vt 0.375000 0.843411
vt 0.375000 0.250000
vt 0.375000 0.406589
vt 0.375000 1.000000
s 0
usemtl Material
f 18/1/1 15/2/1 7/3/1 10/4/1
f 24/5/2 10/6/2 7/7/2 20/8/2
f 26/9/3 15/10/3 5/11/3 22/12/3
f 17/13/4 16/14/4 4/15/4 11/16/4
f 25/17/5 14/18/5 3/19/5 21/20/5
f 23/21/6 12/22/6 1/23/6 19/24/6
f 22/12/7 5/11/7 12/22/7 23/21/7
f 13/25/4 17/13/4 11/16/4 8/26/4
f 21/20/2 3/19/2 10/6/2 24/5/2
f 14/18/8 18/1/8 10/4/8 3/19/8
f 1/23/9 12/27/9 18/1/9 14/18/9
f 6/28/4 9/29/4 17/13/4 13/25/4
f 19/24/10 1/23/10 14/18/10 25/17/10
f 9/29/4 2/30/4 16/14/4 17/13/4
f 20/31/11 7/32/11 15/10/11 26/9/11
f 12/27/12 5/33/12 15/2/12 18/1/12
f 8/34/13 20/31/13 26/9/13 13/35/13
f 2/30/14 19/24/14 25/17/14 16/14/14
f 4/15/15 21/20/15 24/5/15 11/36/15
f 6/37/16 22/12/16 23/21/16 9/38/16
f 9/38/17 23/21/17 19/24/17 2/30/17
f 4/15/18 16/14/18 29/14/18 28/15/18
f 13/35/19 26/9/19 22/12/19 6/37/19
f 11/36/20 24/5/20 20/8/20 8/39/20
f 29/14/21 30/17/21 27/20/21 28/15/21
f 25/17/22 21/20/22 27/20/22 30/17/22
f 16/14/23 25/17/23 30/17/23 29/14/23
f 21/20/24 4/15/24 28/15/24 27/20/24
