# Blender 4.0.2
# www.blender.org
mtllib SimpleSubmesh.mtl
g submesh1_Mesh
v -0.996754 1.000000 -1.000000
v -0.996754 -1.000000 -1.000000
v -1.480516 1.000000 1.000000
v -0.996754 -1.000000 1.000000
v -2.996754 1.000000 -1.411315
v -3.392169 -0.493338 -1.000000
v -2.861464 1.177670 0.882187
v -2.739723 -0.544019 0.696775
v -1.996754 -1.000000 -1.000000
v -1.996754 1.000000 1.000000
v -1.996754 -1.000000 1.000000
v -2.268112 0.580957 -1.460899
v -2.906854 -1.865593 -0.555681
v -1.480516 1.000000 0.000000
v -2.996754 0.685776 0.000000
v -0.607213 -1.485510 0.000000
v -1.996754 -1.556226 0.000000
v -1.996754 1.000000 0.000000
v -0.996754 0.006941 -1.000000
v -2.933166 0.246104 0.974183
v -1.480516 0.006941 1.000000
v -3.371655 0.006941 -1.411315
v -1.996754 0.006941 -1.529871
v -1.996754 0.006941 1.000000
v -0.526812 0.006941 0.000000
v -3.371655 0.006941 0.000000
vn 0.2013 0.9795 -0.0000
vn -0.0276 -0.0000 0.9996
vn -0.8754 0.4834 -0.0000
vn -0.0000 -0.8739 0.4861
vn 0.5942 0.5707 0.5667
vn 0.4682 -0.0000 -0.8836
vn -0.0856 0.0789 -0.9932
vn -0.2176 -0.6567 0.7220
vn -0.0000 -0.0000 1.0000
vn -0.0000 1.0000 -0.0000
vn -0.1254 -0.3455 -0.9300
vn 0.9050 -0.0000 -0.4253
vn -0.0000 -0.8739 -0.4861
vn -0.8440 0.4661 0.2655
vn -0.2929 0.9321 -0.2130
vn -0.8146 -0.3414 0.4689
vn 0.9223 -0.0497 -0.3834
vn -0.1667 -0.4592 -0.8726
vn -0.0000 -0.0000 -1.0000
vn 0.9223 -0.0497 0.3834
vn -0.9457 -0.2824 0.1607
vn -0.3779 -0.0000 0.9259
vn -0.2696 0.8581 -0.4371
vn -0.1128 0.1062 0.9879
vn -0.9327 0.3521 0.0784
vn 0.0454 -0.8916 0.4506
vn 1.0000 -0.0000 -0.0000
vn 0.2615 0.2361 -0.9359
vn -0.0558 0.0211 -0.9982
vn -0.5921 -0.7043 0.3917
vn -0.2289 0.9462 -0.2289
vn 0.5106 -0.7514 -0.4179
vn 0.6810 0.6540 0.3294
vn 0.0454 -0.8916 -0.4506
vn -0.9908 0.0865 0.1037
vn 0.4992 0.8458 0.1883
vn -0.8148 -0.3592 0.4550
vn -0.0666 -0.6320 -0.7721
vn 0.4246 -0.4216 -0.8012
vn 0.6835 0.3284 0.6519
vn -0.9992 0.0410 -0.0000
vn -0.1160 -0.3542 0.9279
vt 0.750000 0.625000
vt 0.875000 0.750000
vt 0.750000 0.750000
vt 0.625000 0.875000
vt 0.500868 1.000000
vt 0.500868 0.875000
vt 0.625000 0.125000
vt 0.500868 0.250000
vt 0.500868 0.125000
vt 0.250000 0.625000
vt 0.375000 0.750000
vt 0.250000 0.750000
vt 0.625000 0.625000
vt 0.500868 0.750000
vt 0.500868 0.625000
vt 0.500868 0.375000
vt 0.625000 0.500000
vt 0.500868 0.500000
vt 0.625000 0.375000
vt 0.125000 0.750000
vt 0.125000 0.625000
vt 0.625000 0.750000
vt 0.250000 0.500000
vt 0.125000 0.500000
vt 0.375000 0.500000
vt 0.500868 0.000000
vt 0.750000 0.500000
vt 0.875000 0.625000
vt 0.375000 0.000000
vt 0.375000 0.125000
vt 0.375000 0.625000
vt 0.375000 0.875000
vt 0.375000 0.250000
vt 0.375000 0.375000
vt 0.375000 1.000000
vt 0.625000 1.000000
vt 0.625000 0.250000
vt 0.625000 0.000000
vt 0.875000 0.500000
s 0
g off
g submesh1_Material
usemtl Material
f 18/1/1 7/2/1 10/3/1
f 10/4/2 20/5/2 24/6/2
f 15/7/3 22/8/3 26/9/3
f 17/10/4 4/11/4 11/12/4
f 14/13/5 21/14/5 25/15/5
f 23/16/6 1/17/6 19/18/6
f 22/8/7 12/19/7 23/16/7
f 17/10/8 8/20/8 13/21/8
f 3/22/9 24/6/9 21/14/9
f 18/1/10 3/22/10 14/13/10
f 1/17/10 18/1/10 14/13/10
f 9/23/11 13/21/11 6/24/11
f 1/17/12 25/15/12 19/18/12
f 2/25/13 17/10/13 9/23/13
f 20/26/14 15/7/14 26/9/14
f 12/27/15 15/28/15 18/1/15
f 8/29/16 26/9/16 13/30/16
f 2/25/17 25/15/17 16/31/17
f 21/14/9 11/32/9 4/11/9
f 6/33/18 23/16/18 9/34/18
f 9/34/19 19/18/19 2/25/19
f 25/15/20 4/11/20 16/31/20
f 26/9/21 6/33/21 13/30/21
f 24/6/22 8/35/22 11/32/22
f 18/1/23 15/28/23 7/2/23
f 10/4/24 7/36/24 20/5/24
f 15/7/25 5/37/25 22/8/25
f 17/10/26 16/31/26 4/11/26
f 14/13/27 3/22/27 21/14/27
f 23/16/28 12/19/28 1/17/28
f 22/8/29 5/37/29 12/19/29
f 17/10/30 11/12/30 8/20/30
f 3/22/9 10/4/9 24/6/9
f 18/1/10 10/3/10 3/22/10
f 1/17/31 12/27/31 18/1/31
f 9/23/32 17/10/32 13/21/32
f 1/17/33 14/13/33 25/15/33
f 2/25/34 16/31/34 17/10/34
f 20/26/35 7/38/35 15/7/35
f 12/27/36 5/39/36 15/28/36
f 8/29/37 20/26/37 26/9/37
f 2/25/12 19/18/12 25/15/12
f 21/14/9 24/6/9 11/32/9
f 6/33/38 22/8/38 23/16/38
f 9/34/39 23/16/39 19/18/39
f 25/15/40 21/14/40 4/11/40
f 26/9/41 22/8/41 6/33/41
f 24/6/42 20/5/42 8/35/42
g submesh2_Mesh
v 2.672509 0.873266 -1.000000
v 3.011527 -1.000000 -1.000000
v 3.011527 1.000000 1.000000
v 3.835084 -1.000000 1.000000
v 1.011527 1.000000 -1.000000
v 1.011527 -1.000000 -1.000000
v 1.254821 0.602150 1.103154
v 1.460489 -0.664291 0.598792
v 2.011527 -1.000000 -1.000000
v 2.011527 1.000000 1.000000
v 2.173080 -1.000000 0.756604
v 2.011527 1.000000 -1.000000
v 1.173080 -1.000000 -0.243396
v 3.011527 1.000000 0.000000
v 1.011527 1.000000 0.000000
v 3.906197 -1.000000 0.000000
v 2.011527 -1.000000 0.000000
v 2.011527 -0.240439 0.000000
v 3.011527 0.006941 -1.000000
v 1.173080 0.006941 0.756604
v 3.834954 0.006941 1.000000
v 1.011527 0.006941 -1.000000
v 2.011527 0.006941 -1.414950
v 2.011527 0.006941 1.501575
v 3.869784 0.006941 0.000000
v 1.011527 0.006941 0.000000
vn -0.3997 0.5753 -0.7136
vn -0.6281 -0.3253 0.7069
vn -1.0000 -0.0000 -0.0000
vn -0.0000 -1.0000 -0.0000
vn 0.7563 0.6537 0.0263
vn 0.3790 0.1483 -0.9134
vn -0.3576 0.3601 -0.8617
vn -0.1167 -0.9082 0.4019
vn 0.2590 0.2148 0.9417
vn -0.0000 1.0000 -0.0000
vn -0.7656 0.6172 0.1813
vn 0.6345 0.5484 -0.5446
vn -0.9780 -0.0000 0.2088
vn 0.6143 0.4952 0.6143
vn -0.8862 -0.2382 0.3974
vn 0.7450 0.0269 -0.6665
vn -0.1449 -0.0000 0.9894
vn -0.0000 -0.0000 -1.0000
vn 0.9968 0.0360 0.0709
vn -0.4272 -0.5811 0.6928
vn 0.7774 0.6267 0.0546
vn -0.1146 0.4479 0.8867
vn 0.7698 0.6383 -0.0000
vn 0.0737 0.3845 -0.9202
vn -0.4413 -0.8924 0.0942
vn -0.0000 0.4508 0.8926
vn -0.6143 0.4952 -0.6143
vn 0.1195 0.6231 0.7729
vn 0.8757 0.3427 -0.3403
vn -0.9760 0.0072 0.2178
vn -0.8858 -0.4238 0.1891
vn 0.7588 -0.0000 -0.6513
vn 0.2203 -0.5571 0.8007
vn -0.3582 -0.3557 -0.8632
vn 0.3582 -0.3557 -0.8632
vn 0.9994 0.0001 0.0348
vn -0.9874 -0.1584 -0.0000
vn -0.6034 -0.4180 0.6791
vt 0.750000 0.625000
vt 0.875000 0.750000
vt 0.750000 0.750000
vt 0.500868 0.875000
vt 0.625000 1.000000
vt 0.500868 1.000000
vt 0.625000 0.125000
vt 0.500868 0.250000
vt 0.500868 0.125000
vt 0.375000 0.625000
vt 0.250000 0.750000
vt 0.250000 0.625000
vt 0.625000 0.625000
vt 0.500868 0.750000
vt 0.500868 0.625000
vt 0.500868 0.375000
vt 0.625000 0.500000
vt 0.500868 0.500000
vt 0.625000 0.375000
vt 0.125000 0.750000
vt 0.125000 0.625000
vt 0.625000 0.750000
vt 0.250000 0.500000
vt 0.125000 0.500000
vt 0.375000 0.500000
vt 0.500868 0.000000
vt 0.750000 0.500000
vt 0.875000 0.625000
vt 0.375000 0.000000
vt 0.375000 0.125000
vt 0.375000 0.875000
vt 0.375000 0.750000
vt 0.375000 0.375000
vt 0.375000 0.250000
vt 0.375000 1.000000
vt 0.625000 0.875000
vt 0.625000 0.250000
vt 0.625000 0.000000
vt 0.875000 0.500000
s 0
g off
g submesh2_Material.003
usemtl Material.003
f 44/40/43 33/41/43 36/42/43
f 50/43/44 33/44/44 46/45/44
f 41/46/45 48/47/45 52/48/45
f 42/49/46 37/50/46 43/51/46
f 40/52/47 47/53/47 51/54/47
f 49/55/48 27/56/48 45/57/48
f 48/47/49 38/58/49 49/55/49
f 43/51/50 34/59/50 39/60/50
f 29/61/51 50/43/51 47/53/51
f 40/52/52 36/42/52 29/61/52
f 27/56/53 44/40/53 40/52/53
f 35/62/46 39/60/46 32/63/46
f 45/57/54 40/52/54 51/54/54
f 28/64/46 43/51/46 35/62/46
f 46/65/55 41/46/55 52/48/55
f 38/66/56 41/67/56 44/40/56
f 34/68/57 52/48/57 39/69/57
f 28/64/58 51/54/58 42/49/58
f 47/53/59 37/70/59 30/71/59
f 48/47/60 35/72/60 32/73/60
f 35/72/60 45/57/60 28/64/60
f 51/54/61 30/71/61 42/49/61
f 39/69/55 48/47/55 32/73/55
f 50/43/62 34/74/62 37/70/62
f 44/40/63 41/67/63 33/41/63
f 50/43/64 36/75/64 33/44/64
f 41/46/45 31/76/45 48/47/45
f 42/49/46 30/71/46 37/50/46
f 40/52/65 29/61/65 47/53/65
f 49/55/66 38/58/66 27/56/66
f 48/47/60 31/76/60 38/58/60
f 43/51/67 37/50/67 34/59/67
f 29/61/68 36/75/68 50/43/68
f 40/52/69 44/40/69 36/42/69
f 27/56/70 38/66/70 44/40/70
f 35/62/46 43/51/46 39/60/46
f 45/57/71 27/56/71 40/52/71
f 28/64/46 42/49/46 43/51/46
f 46/65/72 33/77/72 41/46/72
f 38/66/52 31/78/52 41/67/52
f 34/68/73 46/65/73 52/48/73
f 28/64/74 45/57/74 51/54/74
f 47/53/75 50/43/75 37/70/75
f 48/47/76 49/55/76 35/72/76
f 35/72/77 49/55/77 45/57/77
f 51/54/78 47/53/78 30/71/78
f 39/69/79 52/48/79 48/47/79
f 50/43/80 46/45/80 34/74/80
